<svg width="100" height="29" viewBox="0 0 100 29" fill="none" xmlns="http://www.w3.org/2000/svg">
<rect width="100" height="29" rx="14.5" fill="#F9F9F9"/>
<path d="M39.907 19H38.799L42.0036 10.2727H43.0945L46.299 19H45.1911L42.5831 11.6534H42.5149L39.907 19ZM40.3161 15.5909H44.782V16.5284H40.3161V15.5909ZM49.9936 19.1364C49.4482 19.1364 48.9666 18.9986 48.549 18.723C48.1314 18.4446 47.8047 18.0526 47.5689 17.5469C47.3331 17.0384 47.2152 16.4375 47.2152 15.7443C47.2152 15.0568 47.3331 14.4602 47.5689 13.9545C47.8047 13.4489 48.1328 13.0582 48.5533 12.7827C48.9737 12.5071 49.4595 12.3693 50.0107 12.3693C50.4368 12.3693 50.7734 12.4403 51.0206 12.5824C51.2706 12.7216 51.4609 12.8807 51.5916 13.0597C51.7251 13.2358 51.8288 13.3807 51.9027 13.4943H51.9879V10.2727H52.9936V19H52.022V17.9943H51.9027C51.8288 18.1136 51.7237 18.2642 51.5874 18.446C51.451 18.625 51.2564 18.7855 51.0036 18.9276C50.7507 19.0668 50.4141 19.1364 49.9936 19.1364ZM50.13 18.233C50.5334 18.233 50.8743 18.1278 51.1527 17.9176C51.4311 17.7045 51.6428 17.4105 51.7876 17.0355C51.9325 16.6577 52.005 16.2216 52.005 15.7273C52.005 15.2386 51.9339 14.8111 51.7919 14.4446C51.6499 14.0753 51.4396 13.7884 51.1612 13.5838C50.8828 13.3764 50.5391 13.2727 50.13 13.2727C49.7038 13.2727 49.3487 13.3821 49.0646 13.6009C48.7834 13.8168 48.5717 14.1108 48.4297 14.483C48.2905 14.8523 48.2209 15.267 48.2209 15.7273C48.2209 16.1932 48.2919 16.6165 48.4339 16.9972C48.5788 17.375 48.7919 17.6761 49.0732 17.9006C49.3572 18.1222 49.7095 18.233 50.13 18.233ZM57.4467 19.1364C56.9013 19.1364 56.4197 18.9986 56.0021 18.723C55.5845 18.4446 55.2578 18.0526 55.022 17.5469C54.7862 17.0384 54.6683 16.4375 54.6683 15.7443C54.6683 15.0568 54.7862 14.4602 55.022 13.9545C55.2578 13.4489 55.5859 13.0582 56.0064 12.7827C56.4268 12.5071 56.9126 12.3693 57.4638 12.3693C57.8899 12.3693 58.2266 12.4403 58.4737 12.5824C58.7237 12.7216 58.9141 12.8807 59.0447 13.0597C59.1783 13.2358 59.282 13.3807 59.3558 13.4943H59.4411V10.2727H60.4467V19H59.4751V17.9943H59.3558C59.282 18.1136 59.1768 18.2642 59.0405 18.446C58.9041 18.625 58.7095 18.7855 58.4567 18.9276C58.2038 19.0668 57.8672 19.1364 57.4467 19.1364ZM57.5831 18.233C57.9865 18.233 58.3274 18.1278 58.6058 17.9176C58.8842 17.7045 59.0959 17.4105 59.2408 17.0355C59.3857 16.6577 59.4581 16.2216 59.4581 15.7273C59.4581 15.2386 59.3871 14.8111 59.245 14.4446C59.103 14.0753 58.8928 13.7884 58.6143 13.5838C58.3359 13.3764 57.9922 13.2727 57.5831 13.2727C57.157 13.2727 56.8018 13.3821 56.5178 13.6009C56.2365 13.8168 56.0249 14.1108 55.8828 14.483C55.7436 14.8523 55.674 15.267 55.674 15.7273C55.674 16.1932 55.745 16.6165 55.8871 16.9972C56.032 17.375 56.245 17.6761 56.5263 17.9006C56.8104 18.1222 57.1626 18.233 57.5831 18.233Z" fill="black"/>
</svg>
