<svg width="30" height="30" viewBox="0 0 30 30" fill="none" xmlns="http://www.w3.org/2000/svg">
<path fill-rule="evenodd" clip-rule="evenodd" d="M4 0C1.79086 0 0 1.79086 0 4V26C0 28.2091 1.79086 30 4 30H26C28.2091 30 30 28.2091 30 26V4C30 1.79086 28.2091 0 26 0H4ZM11.6075 16.2637C13.0394 17.6957 15.361 17.6957 16.7929 16.2637C18.2248 14.8318 18.2248 12.5102 16.7929 11.0783C15.361 9.64637 13.0394 9.64637 11.6075 11.0783C10.1755 12.5102 10.1755 14.8318 11.6075 16.2637ZM10.6647 17.2066C12.4575 18.9994 15.2731 19.1461 17.2333 17.6467L20.8 21.2134L21.7428 20.2706L18.1761 16.7039C19.6753 14.7437 19.5285 11.9282 17.7357 10.1355C15.7831 8.18287 12.6173 8.18287 10.6647 10.1355C8.71204 12.0881 8.71204 15.2539 10.6647 17.2066Z" fill="#949494"/>
</svg>
