<svg width="30" height="30" viewBox="0 0 30 30" fill="none" xmlns="http://www.w3.org/2000/svg">
<rect width="30" height="30" rx="4" fill="#F5F5F5"/>
<path fill-rule="evenodd" clip-rule="evenodd" d="M16.7929 16.2638C15.361 17.6957 13.0394 17.6957 11.6075 16.2638C10.1755 14.8318 10.1755 12.5102 11.6075 11.0783C13.0394 9.6464 15.361 9.6464 16.7929 11.0783C18.2248 12.5102 18.2248 14.8318 16.7929 16.2638ZM17.2333 17.6467C15.2731 19.1461 12.4575 18.9994 10.6647 17.2066C8.71204 15.254 8.71204 12.0881 10.6647 10.1355C12.6173 8.18289 15.7831 8.18289 17.7357 10.1355C19.5285 11.9283 19.6753 14.7437 18.1761 16.7039L21.7428 20.2706L20.8 21.2134L17.2333 17.6467Z" fill="#2E2E2E"/>
</svg>
