<svg width="30" height="30" viewBox="0 0 30 30" fill="none" xmlns="http://www.w3.org/2000/svg">
<path d="M0 10C0 6.49967 0 4.74951 0.681209 3.41256C1.28042 2.23655 2.23655 1.28042 3.41256 0.681209C4.74951 0 6.49967 0 10 0H20C23.5003 0 25.2505 0 26.5874 0.681209C27.7635 1.28042 28.7196 2.23655 29.3188 3.41256C30 4.74951 30 6.49967 30 10V20C30 23.5003 30 25.2505 29.3188 26.5874C28.7196 27.7635 27.7635 28.7196 26.5874 29.3188C25.2505 30 23.5003 30 20 30H10C6.49967 30 4.74951 30 3.41256 29.3188C2.23655 28.7196 1.28042 27.7635 0.681209 26.5874C0 25.2505 0 23.5003 0 20V10Z" fill="#949494"/>
<circle cx="14.9996" cy="15" r="8.68421" fill="#F9F9F9"/>
<path fill-rule="evenodd" clip-rule="evenodd" d="M11.9631 15C11.9631 16.677 13.3226 18.0364 14.9995 18.0364C16.6765 18.0364 18.036 16.677 18.036 15H19.7364C19.7364 17.6161 17.6156 19.7368 14.9995 19.7368C12.3835 19.7368 10.2627 17.6161 10.2627 15H11.9631Z" fill="#949494"/>
</svg>
