<svg width="100" height="34" viewBox="0 0 100 34" fill="none" xmlns="http://www.w3.org/2000/svg">
<rect width="100" height="34" rx="17" fill="#FF6838"/>
<path d="M38.2248 22.5518H36.9322L40.6708 12.3699H41.9435L45.6822 22.5518H44.3896L41.3469 13.9807H41.2674L38.2248 22.5518ZM38.7021 18.5745H43.9123V19.6682H38.7021V18.5745ZM49.9925 22.7108C49.3562 22.7108 48.7944 22.5501 48.3072 22.2286C47.82 21.9038 47.4388 21.4464 47.1637 20.8564C46.8886 20.2632 46.7511 19.5622 46.7511 18.7535C46.7511 17.9514 46.8886 17.2554 47.1637 16.6654C47.4388 16.0754 47.8216 15.6197 48.3121 15.2982C48.8027 14.9767 49.3694 14.816 50.0124 14.816C50.5096 14.816 50.9023 14.8988 51.1907 15.0645C51.4824 15.2269 51.7044 15.4126 51.8569 15.6214C52.0127 15.8269 52.1336 15.9959 52.2198 16.1285H52.3192V12.3699H53.4925V22.5518H52.359V21.3785H52.2198C52.1336 21.5177 52.011 21.6933 51.8519 21.9055C51.6928 22.1143 51.4658 22.3015 51.1708 22.4672C50.8758 22.6296 50.4831 22.7108 49.9925 22.7108ZM50.1516 21.6569C50.6223 21.6569 51.02 21.5342 51.3448 21.289C51.6696 21.0404 51.9165 20.6974 52.0856 20.2599C52.2546 19.819 52.3391 19.3103 52.3391 18.7336C52.3391 18.1635 52.2563 17.6647 52.0906 17.2371C51.9248 16.8063 51.6796 16.4715 51.3548 16.2329C51.0299 15.9909 50.6289 15.8699 50.1516 15.8699C49.6545 15.8699 49.2402 15.9975 48.9087 16.2528C48.5806 16.5046 48.3337 16.8477 48.168 17.2819C48.0056 17.7127 47.9244 18.1966 47.9244 18.7336C47.9244 19.2771 48.0072 19.771 48.1729 20.2151C48.342 20.6559 48.5906 21.0073 48.9187 21.2691C49.2501 21.5276 49.6611 21.6569 50.1516 21.6569ZM58.6879 22.7108C58.0515 22.7108 57.4897 22.5501 57.0025 22.2286C56.5153 21.9038 56.1341 21.4464 55.859 20.8564C55.5839 20.2632 55.4464 19.5622 55.4464 18.7535C55.4464 17.9514 55.5839 17.2554 55.859 16.6654C56.1341 16.0754 56.5169 15.6197 57.0075 15.2982C57.498 14.9767 58.0647 14.816 58.7077 14.816C59.2049 14.816 59.5977 14.8988 59.886 15.0645C60.1777 15.2269 60.3997 15.4126 60.5522 15.6214C60.708 15.8269 60.829 15.9959 60.9151 16.1285H61.0146V12.3699H62.1879V22.5518H61.0543V21.3785H60.9151C60.829 21.5177 60.7063 21.6933 60.5472 21.9055C60.3881 22.1143 60.1611 22.3015 59.8661 22.4672C59.5711 22.6296 59.1784 22.7108 58.6879 22.7108ZM58.8469 21.6569C59.3176 21.6569 59.7153 21.5342 60.0401 21.289C60.3649 21.0404 60.6119 20.6974 60.7809 20.2599C60.9499 19.819 61.0344 19.3103 61.0344 18.7336C61.0344 18.1635 60.9516 17.6647 60.7859 17.2371C60.6201 16.8063 60.3749 16.4715 60.0501 16.2329C59.7253 15.9909 59.3242 15.8699 58.8469 15.8699C58.3498 15.8699 57.9355 15.9975 57.604 16.2528C57.2759 16.5046 57.029 16.8477 56.8633 17.2819C56.7009 17.7127 56.6197 18.1966 56.6197 18.7336C56.6197 19.2771 56.7025 19.771 56.8683 20.2151C57.0373 20.6559 57.2859 21.0073 57.614 21.2691C57.9454 21.5276 58.3564 21.6569 58.8469 21.6569Z" fill="white"/>
</svg>
