<svg width="100" height="29" viewBox="0 0 100 29" fill="none" xmlns="http://www.w3.org/2000/svg">
<rect width="100" height="29" rx="14.5" fill="#949494"/>
<path d="M28.3693 19V10.2727H31.3182C32 10.2727 32.5597 10.3892 32.9972 10.6222C33.4347 10.8523 33.7585 11.169 33.9688 11.5724C34.179 11.9759 34.2841 12.4347 34.2841 12.9489C34.2841 13.4631 34.179 13.919 33.9688 14.3168C33.7585 14.7145 33.4361 15.027 33.0014 15.2543C32.5668 15.4787 32.0114 15.5909 31.3352 15.5909H28.9489V14.6364H31.3011C31.767 14.6364 32.142 14.5682 32.4261 14.4318C32.7131 14.2955 32.9205 14.1023 33.0483 13.8523C33.179 13.5994 33.2443 13.2983 33.2443 12.9489C33.2443 12.5994 33.179 12.294 33.0483 12.0327C32.9176 11.7713 32.7088 11.5696 32.4219 11.4276C32.1349 11.2827 31.7557 11.2102 31.2841 11.2102H29.4261V19H28.3693ZM32.4773 15.0795L34.625 19H33.3977L31.2841 15.0795H32.4773ZM38.5827 19.1364C37.9521 19.1364 37.408 18.9972 36.9506 18.7188C36.4961 18.4375 36.1452 18.0455 35.8981 17.5426C35.6538 17.0369 35.5316 16.4489 35.5316 15.7784C35.5316 15.108 35.6538 14.517 35.8981 14.0057C36.1452 13.4915 36.489 13.0909 36.9293 12.804C37.3725 12.5142 37.8896 12.3693 38.4805 12.3693C38.8214 12.3693 39.158 12.4261 39.4904 12.5398C39.8228 12.6534 40.1254 12.8381 40.3981 13.0938C40.6708 13.3466 40.8881 13.6818 41.0501 14.0994C41.212 14.517 41.293 15.0312 41.293 15.642V16.0682H36.2475V15.1989H40.2702C40.2702 14.8295 40.1964 14.5 40.0487 14.2102C39.9038 13.9205 39.6964 13.6918 39.4265 13.5241C39.1594 13.3565 38.8441 13.2727 38.4805 13.2727C38.0799 13.2727 37.7333 13.3722 37.4407 13.571C37.1509 13.767 36.9279 14.0227 36.7717 14.3381C36.6154 14.6534 36.5373 14.9915 36.5373 15.3523V15.9318C36.5373 16.4261 36.6225 16.8452 36.793 17.1889C36.9663 17.5298 37.2063 17.7898 37.5131 17.9688C37.82 18.1449 38.1765 18.233 38.5827 18.233C38.8469 18.233 39.0856 18.196 39.2987 18.1222C39.5146 18.0455 39.7006 17.9318 39.8569 17.7812C40.0131 17.6278 40.1339 17.4375 40.2191 17.2102L41.1907 17.483C41.0884 17.8125 40.9165 18.1023 40.6751 18.3523C40.4336 18.5994 40.1353 18.7926 39.7802 18.9318C39.4251 19.0682 39.0259 19.1364 38.5827 19.1364ZM42.8228 19V12.4545H43.7944V13.4773H43.8796C44.016 13.1278 44.2362 12.8565 44.5401 12.6634C44.8441 12.4673 45.2092 12.3693 45.6353 12.3693C46.0671 12.3693 46.4265 12.4673 46.7134 12.6634C47.0032 12.8565 47.229 13.1278 47.391 13.4773H47.4592C47.6268 13.1392 47.8782 12.8707 48.2134 12.6719C48.5487 12.4702 48.9506 12.3693 49.4194 12.3693C50.0046 12.3693 50.4833 12.5526 50.8555 12.919C51.2276 13.2827 51.4137 13.8494 51.4137 14.6193V19H50.408V14.6193C50.408 14.1364 50.2759 13.7912 50.0117 13.5838C49.7475 13.3764 49.4364 13.2727 49.0785 13.2727C48.6183 13.2727 48.2617 13.4119 48.0089 13.6903C47.756 13.9659 47.6296 14.3153 47.6296 14.7386V19H46.6069V14.517C46.6069 14.1449 46.4862 13.8452 46.2447 13.6179C46.0032 13.3878 45.6921 13.2727 45.3114 13.2727C45.0501 13.2727 44.8058 13.3423 44.5785 13.4815C44.354 13.6207 44.1722 13.8139 44.033 14.0611C43.8967 14.3054 43.8285 14.5881 43.8285 14.9091V19H42.8228ZM55.9116 19.1364C55.3207 19.1364 54.8022 18.9957 54.3562 18.7145C53.913 18.4332 53.5664 18.0398 53.3164 17.5341C53.0692 17.0284 52.9457 16.4375 52.9457 15.7614C52.9457 15.0795 53.0692 14.4844 53.3164 13.9759C53.5664 13.4673 53.913 13.0724 54.3562 12.7912C54.8022 12.5099 55.3207 12.3693 55.9116 12.3693C56.5025 12.3693 57.0195 12.5099 57.4627 12.7912C57.9087 13.0724 58.2553 13.4673 58.5025 13.9759C58.7525 14.4844 58.8775 15.0795 58.8775 15.7614C58.8775 16.4375 58.7525 17.0284 58.5025 17.5341C58.2553 18.0398 57.9087 18.4332 57.4627 18.7145C57.0195 18.9957 56.5025 19.1364 55.9116 19.1364ZM55.9116 18.233C56.3604 18.233 56.7298 18.1179 57.0195 17.8878C57.3093 17.6577 57.5238 17.3551 57.663 16.9801C57.8022 16.6051 57.8718 16.1989 57.8718 15.7614C57.8718 15.3239 57.8022 14.9162 57.663 14.5384C57.5238 14.1605 57.3093 13.8551 57.0195 13.6222C56.7298 13.3892 56.3604 13.2727 55.9116 13.2727C55.4627 13.2727 55.0934 13.3892 54.8036 13.6222C54.5138 13.8551 54.2994 14.1605 54.1602 14.5384C54.021 14.9162 53.9513 15.3239 53.9513 15.7614C53.9513 16.1989 54.021 16.6051 54.1602 16.9801C54.2994 17.3551 54.5138 17.6577 54.8036 17.8878C55.0934 18.1179 55.4627 18.233 55.9116 18.233ZM65.5305 12.4545L63.1101 19H62.0874L59.6669 12.4545H60.7578L62.5646 17.6705H62.6328L64.4396 12.4545H65.5305ZM69.3679 19.1364C68.7372 19.1364 68.1932 18.9972 67.7358 18.7188C67.2812 18.4375 66.9304 18.0455 66.6832 17.5426C66.4389 17.0369 66.3168 16.4489 66.3168 15.7784C66.3168 15.108 66.4389 14.517 66.6832 14.0057C66.9304 13.4915 67.2741 13.0909 67.7145 12.804C68.1577 12.5142 68.6747 12.3693 69.2656 12.3693C69.6065 12.3693 69.9432 12.4261 70.2756 12.5398C70.608 12.6534 70.9105 12.8381 71.1832 13.0938C71.456 13.3466 71.6733 13.6818 71.8352 14.0994C71.9972 14.517 72.0781 15.0312 72.0781 15.642V16.0682H67.0327V15.1989H71.0554C71.0554 14.8295 70.9815 14.5 70.8338 14.2102C70.6889 13.9205 70.4815 13.6918 70.2116 13.5241C69.9446 13.3565 69.6293 13.2727 69.2656 13.2727C68.8651 13.2727 68.5185 13.3722 68.2259 13.571C67.9361 13.767 67.7131 14.0227 67.5568 14.3381C67.4006 14.6534 67.3224 14.9915 67.3224 15.3523V15.9318C67.3224 16.4261 67.4077 16.8452 67.5781 17.1889C67.7514 17.5298 67.9915 17.7898 68.2983 17.9688C68.6051 18.1449 68.9616 18.233 69.3679 18.233C69.6321 18.233 69.8707 18.196 70.0838 18.1222C70.2997 18.0455 70.4858 17.9318 70.642 17.7812C70.7983 17.6278 70.919 17.4375 71.0043 17.2102L71.9759 17.483C71.8736 17.8125 71.7017 18.1023 71.4602 18.3523C71.2188 18.5994 70.9205 18.7926 70.5653 18.9318C70.2102 19.0682 69.8111 19.1364 69.3679 19.1364Z" fill="#F9F9F9"/>
</svg>
